<svg width="1440" height="342" viewBox="0 0 1440 342" fill="none" xmlns="http://www.w3.org/2000/svg">
<rect x="140" y="113" width="2" height="181" fill="rgba(255, 255, 255, 0.6)"/>
<rect x="273" y="89" width="2" height="181" fill="rgba(255, 255, 255, 0.6)"/>
<rect x="670" y="89" width="2" height="181" fill="rgba(255, 255, 255, 0.6)"/>
<rect x="1074" y="89" width="2" height="181" fill="rgba(255, 255, 255, 0.6)"/>
<rect x="401.129" y="109" width="2" height="320" transform="rotate(55 401.129 109)" fill="rgba(255, 255, 255, 0.6)"/>
<rect x="802.129" y="109" width="2" height="320" transform="rotate(55 802.129 109)" fill="rgba(255, 255, 255, 0.6)"/>
<rect x="1202.13" y="109" width="2" height="320" transform="rotate(55 1202.13 109)" fill="rgba(255, 255, 255, 0.6)"/>
<rect x="900.129" y="109" width="2" height="320" transform="rotate(55 900.129 109)" fill="rgba(255, 255, 255, 0.6)"/>
<rect x="1300.13" y="109" width="2" height="320" transform="rotate(55 1300.13 109)" fill="rgba(255, 255, 255, 0.6)"/>
<rect width="2" height="320" transform="matrix(-0.573576 0.819152 0.819152 0.573576 941.147 109)" fill="rgba(255, 255, 255, 0.6)"/>
<rect width="2" height="320" transform="matrix(-0.573576 0.819152 0.819152 0.573576 541.147 109)" fill="rgba(255, 255, 255, 0.6)"/>
<rect width="2" height="320" transform="matrix(-0.573576 0.819152 0.819152 0.573576 142.147 109)" fill="rgba(255, 255, 255, 0.6)"/>
<rect width="2" height="320" transform="matrix(-0.573576 0.819152 0.819152 0.573576 136.147 0)" fill="rgba(255, 255, 255, 0.6)"/>
<rect width="2" height="320" transform="matrix(-0.573576 0.819152 0.819152 0.573576 531.147 0)" fill="rgba(255, 255, 255, 0.6)"/>
<rect width="2" height="320" transform="matrix(-0.573576 0.819152 0.819152 0.573576 925.147 0)" fill="rgba(255, 255, 255, 0.6)"/>
<rect x="501.129" y="109" width="2" height="320" transform="rotate(55 501.129 109)" fill="rgba(255, 255, 255, 0.6)"/>
<rect x="402.129" width="2" height="320" transform="rotate(55 402.129 0)" fill="rgba(255, 255, 255, 0.6)"/>
<rect x="802.129" width="2" height="320" transform="rotate(55 802.129 0)" fill="rgba(255, 255, 255, 0.6)"/>
<rect x="1202.13" width="2" height="320" transform="rotate(55 1202.13 0)" fill="rgba(255, 255, 255, 0.6)"/>
<rect x="1017.13" y="75" width="2" height="320" transform="rotate(55 1017.13 75)" fill="rgba(255, 255, 255, 0.6)"/>
<rect x="615.129" y="74" width="2" height="320" transform="rotate(55 615.129 74)" fill="rgba(255, 255, 255, 0.6)"/>
<rect x="1415.13" y="74" width="2" height="320" transform="rotate(55 1415.13 74)" fill="rgba(255, 255, 255, 0.6)"/>
<rect x="540" y="113" width="2" height="181" fill="rgba(255, 255, 255, 0.6)"/>
<rect x="940" y="113" width="2" height="181" fill="rgba(255, 255, 255, 0.6)"/>
<rect x="899" y="113" width="2" height="229" fill="rgba(255, 255, 255, 0.6)"/>
<rect x="500" y="113" width="2" height="229" fill="rgba(255, 255, 255, 0.6)"/>
<rect x="1298" y="113" width="2" height="229" fill="rgba(255, 255, 255, 0.6)"/>
<rect x="-1" y="201" width="540" height="2" fill="rgba(255, 255, 255, 0.6)"/>
<rect x="541" y="201" width="463" height="2" fill="rgba(255, 255, 255, 0.6)"/>
<rect x="1004" y="201" width="463" height="2" fill="rgba(255, 255, 255, 0.6)"/>
</svg>
