<svg xmlns="http://www.w3.org/2000/svg" data-name="Layer 1" viewBox="0 0 128 160" x="0px" y="0px">
  <title>expand lines</title>
  <path style="fill: #fff;" d="M4,128h6a4,4,0,0,0,2.73-1.1h.54l.95,0a7.58,7.58,0,0,0,2.15,1,4,4,0,0,0,1,.13H31.57a6.13,6.13,0,0,0,6.19-6.05c0-.11,0-.21,0-.31a5.93,5.93,0,0,0,1.32-4.5,5.93,5.93,0,0,0,1.06-3.39,5.25,5.25,0,0,0-.07-.87,5.87,5.87,0,0,0-5.24-9.06h-5a10.77,10.77,0,0,0,.26-2.57c-.21-1.9-.78-6.89-4.85-8.66A6.61,6.61,0,0,0,22.52,92a6.41,6.41,0,0,0-3.94,1.41,6.88,6.88,0,0,0-2.34,6.24c0,.18,0,1.25,0,1.25-.57,1.21-3.25,5.34-3.3,5.42l-.89.26A4,4,0,0,0,10,106H4a4,4,0,0,0-4,4v14A4,4,0,0,0,4,128Zm10-17.8a10.76,10.76,0,0,0,1.59-.53c.28-.59,4.66-6.92,4.66-8.17v-1.3c0-1.28-.36-2.72.8-3.64a2.41,2.41,0,0,1,2.55-.31c1.86.81,2.28,3.74,2.46,5.42a27.58,27.58,0,0,1-1.52,6.14H34.81A2,2,0,0,1,37,109.67a2.12,2.12,0,0,1-2.19,2s1.32,1,1.32,2a2.12,2.12,0,0,1-2.19,2,3.19,3.19,0,0,1,1.17,2,2.12,2.12,0,0,1-2.18,2.05,3.55,3.55,0,0,1,.83,2A2.12,2.12,0,0,1,31.57,124H17.39c-.76-.2-1.32-.8-2.05-1.05a3.59,3.59,0,0,0-.93-.07H14ZM4,110h6v14H4Z" />
  <path style="fill: #fff;" d="M112.2,92.58a6.34,6.34,0,0,0-5.31,0,7.72,7.72,0,0,0-1.31.82,6.88,6.88,0,0,0-2.34,6.24c0,.18,0,1.25,0,1.25-.57,1.21-3.25,5.34-3.3,5.42l-.89.26A4,4,0,0,0,97,106H91a4,4,0,0,0-4,4v14a4,4,0,0,0,4,4h6a4,4,0,0,0,2.73-1.1h.54l.95,0a7.57,7.57,0,0,0,2.15,1,4,4,0,0,0,1,.13h14.18a6.13,6.13,0,0,0,6.19-6.05c0-.11,0-.21,0-.31a5.93,5.93,0,0,0,1.32-4.5,5.93,5.93,0,0,0,1.06-3.39,5.24,5.24,0,0,0-.07-.87,5.87,5.87,0,0,0-5.24-9.06h-5a10.77,10.77,0,0,0,.26-2.57C116.83,99.34,116.27,94.35,112.2,92.58ZM97,124H91V110h6Zm24.82-16.18a2,2,0,0,1,2.19,1.85,2.12,2.12,0,0,1-2.19,2s1.32,1,1.32,2a2.12,2.12,0,0,1-2.19,2,3.19,3.19,0,0,1,1.17,2,2.12,2.12,0,0,1-2.18,2.05,3.55,3.55,0,0,1,.83,2,2.12,2.12,0,0,1-2.19,2.05H104.39c-.76-.2-1.32-.8-2.05-1.05a3.59,3.59,0,0,0-.93-.07H101V110.2a10.75,10.75,0,0,0,1.59-.53c.28-.59,4.67-6.92,4.67-8.17v-1.3c0-1.28-.36-2.72.8-3.64a2.41,2.41,0,0,1,2.55-.31c1.86.81,2.27,3.74,2.46,5.42a27.57,27.57,0,0,1-1.52,6.14Z" />
  <path style="fill: #fff;" d="M20,8.41a4,4,0,0,0-4-4h-1.5l-.73-1.86A4,4,0,0,0,10.05,0H10A4,4,0,0,0,6.28,2.68L5.62,4.56H4a4,4,0,0,0-2.67,7L3,13.07l-.48,2a4,4,0,0,0,6,4.3l1.47-.93,1.66,1A4,4,0,0,0,17.64,15l-.55-2.1,1.6-1.52A4,4,0,0,0,20,8.41ZM13.77,16,10,13.75,6.45,16l1-4.33L4,8.56H8.45L10.05,4l1.72,4.41H16l-3.37,3.2Z" />
  <path style="fill: #fff;" d="M124,33.88h-2.91l-1.29-3.33A4,4,0,0,0,116.07,28H116a4,4,0,0,0-3.71,2.67l-1.19,3.41H108a4,4,0,0,0-2.67,7l2.86,2.56-.82,3.45a4,4,0,0,0,6,4.3l2.65-1.68L119,51.43A4,4,0,0,0,124.89,47L124,43.43l2.73-2.59a4,4,0,0,0-2.69-7Zm-4.5,8.27L121,48l-5-3-4.73,3,1.37-5.77L108,38.08h5.93L116.07,32l2.29,5.88H124Z" />
  <circle style="fill: #fff;" cx="20" cy="81" r="2" />
  <path style="fill: #fff;" d="M94.15,96.77a3.93,3.93,0,0,0-.78-3l-4.91-6.4a4.07,4.07,0,0,0-3.22-1.58,4,4,0,0,0-2.35.76l-.31-.45c.14-.13,18.69-22.72,18.69-22.72a4,4,0,0,0-.52-5.63l-6.19-5.19A4,4,0,0,0,89,53l-2.11-1.63a1.62,1.62,0,0,1-.45-1.16c1-9.73-4.36-16.15-7.22-19.6A21.92,21.92,0,0,1,74,20.57c-.62-2.77-2.26-10.12-8.5-9.45a6.85,6.85,0,0,0-4.7,2.57,7.12,7.12,0,0,0-1.41,5.39l2.21,9L44.24,13.13a6.17,6.17,0,0,0-8.68.65,6.69,6.69,0,0,0-1.28,2.3l-2.36-2a6.15,6.15,0,1,0-8,9.33l.1.09a6.53,6.53,0,0,0-2,1.58,6.17,6.17,0,0,0,.67,8.68l2.72,2.33a5.92,5.92,0,0,0-1,2.47,6,6,0,0,0,1.13,4.57l0,0a6.57,6.57,0,0,0-2.29,1,6,6,0,0,0-1.36,8.54l3.07,4.09a6.16,6.16,0,0,0-1.75.84,6,6,0,0,0-1.36,8.54s11.14,15,12,16.22c2.71,3.83,5.52,7.78,9.27,11a29.37,29.37,0,0,0,13,6,3.78,3.78,0,0,1,1.75,1.08l2,3.06-.15.11a4,4,0,0,0-.8,5.6l4.91,6.4A4.07,4.07,0,0,0,67,117.21a4,4,0,0,0,2.38-.78l23.2-17A3.93,3.93,0,0,0,94.15,96.77ZM92,55.64l6.19,5.23L81.64,81.07A22,22,0,0,0,81,69ZM26.26,17.32a2.16,2.16,0,0,1,3-.22L55.37,39.47a2,2,0,0,0,2.61-3L38.49,19.7a2,2,0,0,1-.54-1.25,2.91,2.91,0,0,1,.64-2.06,2.17,2.17,0,0,1,3-.23L61.7,33.39a4.15,4.15,0,0,0,1.56.89,26,26,0,0,0,1.92,4.51,2,2,0,1,0,3.47-2,28.16,28.16,0,0,1-2.26-6c0-.1,0-.19-.05-.3l-3-12.09a3.09,3.09,0,0,1,.6-2.29,2.88,2.88,0,0,1,2-1.07c1.4-.15,2.87.52,4.17,6.34a25.79,25.79,0,0,0,6.06,11.77c3.44,4.15,7.05,9.21,6.32,16.65a5.49,5.49,0,0,0,2.06,4.77l1.93,1.5-7.11,8.69c-.34-.71-.67-1.36-1-1.93a21.21,21.21,0,0,1-2.83-10.83c0-2.79.11-10.21-6.17-11a7.06,7.06,0,0,0-5.28,1.42,7,7,0,0,0-2.58,4.8v.12l.13,9L47.88,38a6.27,6.27,0,0,0-3.57-2.32L26.5,20.35a2.15,2.15,0,0,1-.75-1.48A2.13,2.13,0,0,1,26.26,17.32Zm-1,13.38a2.17,2.17,0,0,1-.24-3A2.64,2.64,0,0,1,28.08,27l11.16,9.58h0a6.57,6.57,0,0,0-1.84,2L35.49,36a6.34,6.34,0,0,0-6.75-2.28ZM56.91,95.47a25.45,25.45,0,0,1-11.24-5.14c-3.37-2.88-5.92-6.46-8.6-10.26C36.24,78.9,25,63.76,25,63.76a2,2,0,0,1,.45-2.86,2.34,2.34,0,0,1,3.14.51l10.49,14a2,2,0,0,0,3.2-2.4L31.82,59a6.15,6.15,0,0,0-1-1l-5.77-7.7a2,2,0,0,1-.39-1.54,2,2,0,0,1,.84-1.32,2.85,2.85,0,0,1,3.27.09L46.06,70.57a2,2,0,0,0,3.2-2.4L28.69,40.71a2,2,0,0,1,.46-2.86,2.3,2.3,0,0,1,3.14.51L52.86,65.82a2,2,0,1,0,3.2-2.4L40.68,42.9a1.78,1.78,0,0,1-.24-1.28,2.75,2.75,0,0,1,1.09-1.76,2.32,2.32,0,0,1,3.15.51L60.51,61.5c1.39,1.87,2.83,1.63,3.38,1.44s1.83-.87,1.8-3.16l-.18-12.23a2.93,2.93,0,0,1,1.06-2A3,3,0,0,1,68.86,45c1.43.19,2.75,1.17,2.69,7a25.08,25.08,0,0,0,3.27,12.7c2.43,4.76,4.83,10.41,2.4,17.31a5.36,5.36,0,0,0,.93,5.11l1.52,1.83L63,101.15l-1.94-2.94A7.62,7.62,0,0,0,56.91,95.47ZM67,113.21h0l-5-6.36,23.25-17,4.92,6.34Z" />
  <circle style="fill: #fff;" cx="114" cy="8" r="2" />
  <path style="fill: #fff;" d="M99,12a6,6,0,1,0,6,6A6,6,0,0,0,99,12Zm0,8a2,2,0,1,1,2-2A2,2,0,0,1,99,20Z" />
  <circle style="fill: #fff;" cx="106" cy="72" r="2" transform="translate(-21.75 61.99) rotate(-29.71)" />
  <path style="fill: #fff;" d="M122,86a6,6,0,1,0-5.21-3A6,6,0,0,0,122,86Zm-1-7.74a2,2,0,1,1-.75,2.73A2,2,0,0,1,121,78.26Z" />
  <path style="fill: #fff;" d="M6,78a6,6,0,1,0-6-6A6,6,0,0,0,6,78Zm0-8a2,2,0,1,1-2,2A2,2,0,0,1,6,70Z" />
</svg>