<svg xmlns="http://www.w3.org/2000/svg" data-name="Layer 1" viewBox="0 0 128 160" x="0px" y="0px">
  <title>expand lines</title>
  <path style="fill: #fff;" d="M125.25,45.38a2,2,0,0,0-3.83,1.16l.28.94a2,2,0,0,0,3.85-1.1Q125.4,45.87,125.25,45.38Z" />
  <path style="fill: #fff;" d="M16.64,23.82a2,2,0,0,0-2.81.32l-.64.82a2,2,0,0,0,3.17,2.45l.6-.77A2,2,0,0,0,16.64,23.82Z" />
  <path style="fill: #fff;" d="M79.94,6.14A2,2,0,0,0,81,2.28L80,2a2,2,0,1,0-1,3.88Z" />
  <path style="fill: #fff;" d="M5.23,43.82a2,2,0,0,0,2.58-1.16l.36-.91a2,2,0,0,0-3.72-1.49l-.38,1A2,2,0,0,0,5.23,43.82Z" />
  <path style="fill: #fff;" d="M125.46,57.79l.26,0a2,2,0,0,0,1.72-2.25q-.07-.52-.15-1a2,2,0,0,0-4,.59c0,.32.09.64.14,1A2,2,0,0,0,125.46,57.79Z" />
  <path style="fill: #fff;" d="M22.2,20.87l.7-.67a2,2,0,1,0-2.73-2.93l-.76.72a2,2,0,0,0,2.79,2.87Z" />
  <path style="fill: #fff;" d="M61.62,4l1,0a2,2,0,0,0,0-4h0l-1,0a2,2,0,0,0,.07,4Z" />
  <path style="fill: #fff;" d="M.07,68.78a2,2,0,0,0,2,1.86h.15a2,2,0,0,0,1.85-2.14q0-.49-.06-1a2,2,0,0,0-4,.23Q0,68.26.07,68.78Z" />
  <path style="fill: #fff;" d="M1.62,49.18q-.12.5-.23,1a2,2,0,0,0,3.91.86q.11-.48.22-1a2,2,0,0,0-3.9-.92Z" />
  <path style="fill: #fff;" d="M.14,58.41q0,.52-.08,1a2,2,0,0,0,1.86,2.14h.14a2,2,0,0,0,2-1.86q0-.48.08-1a2,2,0,0,0-4-.35Z" />
  <path style="fill: #fff;" d="M4.14,87a2,2,0,1,0,3.74-1.44l-.34-.91A2,2,0,0,0,3.77,86Z" />
  <path style="fill: #fff;" d="M1.44,78a2,2,0,0,0,2,1.56,2,2,0,0,0,.44,0,2,2,0,0,0,1.52-2.39c-.07-.32-.14-.64-.2-1A2,2,0,0,0,1.22,77C1.29,77.35,1.36,77.69,1.44,78Z" />
  <path style="fill: #fff;" d="M35.46,10.89a2,2,0,0,0,.92-.22l.87-.44a2,2,0,1,0-1.79-3.58l-.92.47a2,2,0,0,0,.92,3.78Z" />
  <path style="fill: #fff;" d="M88.2,9.08a2,2,0,0,0,1.62-3.66l-1-.41A2,2,0,1,0,87.3,8.7Z" />
  <path style="fill: #fff;" d="M98.07,9.82l-.88-.54a2,2,0,1,0-2.08,3.42l.83.52a2,2,0,1,0,2.13-3.39Z" />
  <path style="fill: #fff;" d="M43.78,7.33a2,2,0,0,0,.65-.11l.93-.31a2,2,0,1,0-1.25-3.8l-1,.33a2,2,0,0,0,.65,3.89Z" />
  <path style="fill: #fff;" d="M52.54,5a2,2,0,0,0,.37,0l1-.17A2,2,0,1,0,53.2.88l-1,.18a2,2,0,0,0,.37,4Z" />
  <path style="fill: #fff;" d="M27.75,15.63a2,2,0,0,0,1.17-.38l.8-.56a2,2,0,1,0-2.29-3.28l-.84.6a2,2,0,0,0,1.17,3.63Z" />
  <path style="fill: #fff;" d="M104.29,18.88a2,2,0,0,0,1.3-3.52l-.8-.67a2,2,0,0,0-2.55,3.08l.74.63A2,2,0,0,0,104.29,18.88Z" />
  <path style="fill: #fff;" d="M121.88,36.66a2,2,0,0,0-3.62,1.71l.41.88a2,2,0,0,0,3.65-1.65Z" />
  <path style="fill: #fff;" d="M117.28,28.54a2,2,0,0,0-3.33,2.22l.53.81a2,2,0,0,0,3.37-2.17Z" />
  <path style="fill: #fff;" d="M71.83.46l-1-.12a2,2,0,0,0-.42,4l1,.11h.25a2,2,0,0,0,.24-4Z" />
  <path style="fill: #fff;" d="M52.37,127a2,2,0,1,0,.72-3.94l-1-.18a2,2,0,1,0-.78,3.92Z" />
  <path style="fill: #fff;" d="M111.66,106.73a2,2,0,1,0-3-2.67l-.66.72A2,2,0,0,0,111,107.5Z" />
  <path style="fill: #fff;" d="M126,61.82a2,2,0,0,0-2,2V64q0,.49,0,1a2,2,0,0,0,2,2h0a2,2,0,0,0,2-2c0-.35,0-.69,0-1.05v-.18A2,2,0,0,0,126,61.82Z" />
  <path style="fill: #fff;" d="M97.34,118.66a2,2,0,0,0-2.09-3.41l-.83.5a2,2,0,0,0,2,3.45Z" />
  <path style="fill: #fff;" d="M72.77,125.45a2,2,0,0,0-2.21-1.77l-1,.1a2,2,0,0,0,.18,4H70l1-.1A2,2,0,0,0,72.77,125.45Z" />
  <path style="fill: #fff;" d="M81.62,123.52a2,2,0,0,0-2.44-1.43l-.94.24a2,2,0,0,0,.47,3.94,2,2,0,0,0,.47-.06l1-.25A2,2,0,0,0,81.62,123.52Z" />
  <path style="fill: #fff;" d="M90.09,120.32a2,2,0,0,0-2.63-1.06l-.9.37a2,2,0,1,0,1.51,3.71l1-.4A2,2,0,0,0,90.09,120.32Z" />
  <path style="fill: #fff;" d="M112.23,21.94l-.69-.78a2,2,0,0,0-3,2.68l.64.73a2,2,0,1,0,3-2.63Z" />
  <path style="fill: #fff;" d="M123.09,84.85A2,2,0,0,0,125,83.45l.31-1a2,2,0,0,0-3.83-1.15q-.14.47-.29.93a2,2,0,0,0,1.91,2.61Z" />
  <path style="fill: #fff;" d="M127.17,74.36q.08-.51.16-1a2,2,0,0,0-4-.58q-.07.48-.15,1a2,2,0,0,0,1.66,2.3l.32,0A2,2,0,0,0,127.17,74.36Z" />
  <path style="fill: #fff;" d="M114,100.72a2,2,0,0,0,2.78-.52l.58-.86A2,2,0,1,0,114,97.13l-.54.81A2,2,0,0,0,114,100.72Z" />
  <path style="fill: #fff;" d="M121,88.53a2,2,0,0,0-2.66,1l-.42.88a2,2,0,0,0,3.6,1.76l.45-.94A2,2,0,0,0,121,88.53Z" />
  <path style="fill: #fff;" d="M102.87,114.32a2,2,0,0,0,1.25-.44l.81-.66a2,2,0,1,0-2.57-3.07l-.75.62a2,2,0,0,0,1.26,3.56Z" />
  <path style="fill: #fff;" d="M18.78,106.59a2,2,0,0,0,0,2.83l.75.73a2,2,0,1,0,2.77-2.88l-.69-.68A2,2,0,0,0,18.78,106.59Z" />
  <path style="fill: #fff;" d="M11.28,31.13a2,2,0,0,0-2.74.73l-.51.9a2,2,0,0,0,3.49,2l.49-.85A2,2,0,0,0,11.28,31.13Z" />
  <path style="fill: #fff;" d="M13.29,103.2a2,2,0,1,0,3.16-2.45l-.59-.77a2,2,0,0,0-3.2,2.4Z" />
  <path style="fill: #fff;" d="M8.12,95.42a2,2,0,0,0,3.49-2l-.47-.85a2,2,0,1,0-3.52,1.91Z" />
  <path style="fill: #fff;" d="M28.26,112.29a2,2,0,1,0-2.38,3.21l.84.61A2,2,0,1,0,29,112.86Z" />
  <path style="fill: #fff;" d="M61.8,124l-1,0a2,2,0,0,0-2.1,1.9,2,2,0,0,0,1.9,2.1l1,0h.07a2,2,0,0,0,.07-4Z" />
  <path style="fill: #fff;" d="M35.67,117a2,2,0,0,0-1.9,3.53l.93.49a2,2,0,1,0,1.82-3.56Z" />
  <path style="fill: #fff;" d="M45.86,123.39a2,2,0,0,0-1.25-2.54l-.92-.32a2,2,0,1,0-1.35,3.77l1,.34a2,2,0,0,0,2.54-1.25Z" />
  <path style="fill: #fff;" d="M33.42,45.25c0,.82,0,1.64.11,2.45a30.5,30.5,0,1,0,30.42,52.81A30.5,30.5,0,1,0,94.37,47.7c.06-.81.11-1.62.11-2.45a30.52,30.52,0,0,0-61,0Zm14.17,56A26.5,26.5,0,0,1,34.17,51.92a30.62,30.62,0,0,0,15.72,20.4c-.06.81-.11,1.62-.11,2.45A30.44,30.44,0,0,0,60.47,97.93,26.36,26.36,0,0,1,47.6,101.28ZM73.66,69.91a26.44,26.44,0,0,1-19.43,0,26.53,26.53,0,0,1,9.72-16A26.53,26.53,0,0,1,73.66,69.91ZM67.43,51.6A26.44,26.44,0,0,1,90,50.11a26.58,26.58,0,0,1-12.64,18A30.53,30.53,0,0,0,67.43,51.6ZM50.52,68.1a26.58,26.58,0,0,1-12.64-18A26.44,26.44,0,0,1,60.47,51.6,30.53,30.53,0,0,0,50.52,68.1ZM63.95,95.62A26.47,26.47,0,0,1,53.78,74.77c0-.25,0-.5,0-.74a30.45,30.45,0,0,0,20.3,0c0,.25,0,.49,0,.74A26.47,26.47,0,0,1,63.95,95.62Zm42.87-20.85a26.51,26.51,0,0,1-39.4,23.17A30.45,30.45,0,0,0,78.12,74.77c0-.82,0-1.64-.11-2.45a30.62,30.62,0,0,0,15.72-20.4A26.52,26.52,0,0,1,106.82,74.77ZM90.47,45.25c0,.25,0,.49,0,.74a30.44,30.44,0,0,0-26.5,3,30.44,30.44,0,0,0-26.5-3c0-.25,0-.49,0-.74a26.52,26.52,0,0,1,53,0Z" />
  <path style="fill: #fff;" d="M22.91,46a6,6,0,1,0-6-6A6,6,0,0,0,22.91,46Zm0-8a2,2,0,1,1-2,2A2,2,0,0,1,22.91,38Z" />
  <path style="fill: #fff;" d="M99,40a6,6,0,1,0,6-6A6,6,0,0,0,99,40Zm6-2a2,2,0,1,1-2,2A2,2,0,0,1,105,38Z" />
  <path style="fill: #fff;" d="M70,111a6,6,0,1,0-6,6A6,6,0,0,0,70,111Zm-8,0a2,2,0,1,1,2,2A2,2,0,0,1,61.95,111Z" />
</svg>